<svg xmlns="http://www.w3.org/2000/svg" viewBox="0 0 1200 630">
  <defs>
    <linearGradient id="bg" x1="0" x2="1" y1="0" y2="1">
      <stop offset="0%" stop-color="#1f2937" />
      <stop offset="55%" stop-color="#7c2d12" />
      <stop offset="100%" stop-color="#f97316" />
    </linearGradient>
  </defs>
  <rect width="1200" height="630" fill="url(#bg)" />
  <circle cx="170" cy="130" r="78" fill="#fff7ed" opacity="0.12" />
  <circle cx="1040" cy="520" r="120" fill="#fed7aa" opacity="0.1" />
  <rect x="90" y="90" width="1020" height="450" rx="28" fill="#111827" opacity="0.2" />
  <text x="110" y="230" fill="#fdba74" font-size="28" font-family="Arial, sans-serif" letter-spacing="4">
    DISCOVER AUTHENTIC INDIA
  </text>
  <text x="110" y="330" fill="#ffffff" font-size="78" font-weight="700" font-family="Arial, sans-serif">
    LocalLens
  </text>
  <text x="110" y="410" fill="#ffedd5" font-size="40" font-family="Arial, sans-serif">
    Explore local guides, street food, culture, and hidden gems
  </text>
  <path
    d="M930 195c-49.71 0-90 40.29-90 90 0 65.54 76.45 128.28 85.53 135.52a7.13 7.13 0 0 0 8.94 0C943.55 413.28 1020 350.54 1020 285c0-49.71-40.29-90-90-90Zm0 119.12A29.12 29.12 0 1 1 930 255.88a29.12 29.12 0 0 1 0 58.24Z"
    fill="#fff7ed"
  />
</svg>
